Coordinates
version=1
nRows=24
nColumns=22
inDegrees=yes

Units are S.I. units (second, meters, Newtons, ...)
If the header above contains a line with 'inDegrees', this indicates whether rotational values are in degrees (yes) or radians (no).

endheader
time	pelvis_tilt	pelvis_list	pelvis_rotation	pelvis_tx	pelvis_ty	pelvis_tz	hip_flexion_r	hip_adduction_r	hip_rotation_r	knee_angle_r	ankle_angle_r	subtalar_angle_r	hip_flexion_l	hip_adduction_l	hip_rotation_l	knee_angle_l	ankle_angle_l	subtalar_angle_l	lumbar_extension	lumbar_bending	lumbar_rotation
      4.15000000	      1.48546163	     -1.68397008	      5.19652863	      1.01237250	      1.01986461	      0.02127119	     12.69554596	      3.56725031	     -4.15895644	    -19.07908704	      1.57307761	      1.50514174	     10.93609507	     -8.19030284	     -9.31407821	    -51.31898171	      8.99410992	      4.48916536	     -2.89838636	     -1.29571777	     -1.84305685
      4.16000000	      1.52797816	     -1.61333966	      5.08199635	      1.01876335	      1.02068516	      0.02208760	     12.11221967	      3.61770680	     -4.06848123	    -18.81325775	      1.81560401	      1.31671990	     11.15102358	     -8.18135129	     -9.85490362	    -49.45657408	      9.50797186	      4.46546103	     -2.95236555	     -1.40287388	     -1.47362705
      4.17000000	      1.58010750	     -1.54316464	      4.98570962	      1.02499635	      1.02145622	      0.02280299	     11.53409471	      3.65687624	     -3.98938893	    -18.55960540	      2.04094560	      1.13820451	     11.27313056	     -8.14832749	    -10.35502200	    -47.45999632	     10.04604236	      4.43916908	     -3.01422696	     -1.50253089	     -1.14727266
      4.18000000	      1.63849176	     -1.47799162	      4.90268595	      1.03107364	      1.02217703	      0.02341231	     10.96905282	      3.68838170	     -3.92562748	    -18.32595475	      2.24783932	      0.96922428	     11.30974756	     -8.09038466	    -10.80134600	    -45.35214799	     10.59029960	      4.42831792	     -3.07741784	     -1.58797693	     -0.86394932
      4.19000000	      1.69944414	     -1.42293322	      4.83089760	      1.03699409	      1.02284420	      0.02391428	     10.42032108	      3.71718385	     -3.88135962	    -18.10942184	      2.43233982	      0.80737041	     11.27136651	     -8.00579464	    -11.16829895	    -43.16062001	     11.13142211	      4.43705815	     -3.13675417	     -1.65180458	     -0.62672135
      4.20000000	      1.76350806	     -1.38214426	      4.76747507	      1.04274794	      1.02345270	      0.02432346	      9.88890116	      3.75113310	     -3.85316295	    -17.90982552	      2.58853141	      0.65057962	     11.16945598	     -7.89673360	    -11.42870084	    -40.92633880	     11.65647178	      4.46578573	     -3.19277545	     -1.69042565	     -0.43985246
      4.21000000	      1.82543117	     -1.36105276	      4.70920876	      1.04834515	      1.02398837	      0.02465027	      9.38247617	      3.79567888	     -3.84704710	    -17.73089431	      2.72595683	      0.50463331	     11.01994687	     -7.77277153	    -11.56859281	    -38.68742988	     12.15972982	      4.51511430	     -3.23747389	     -1.70021228	     -0.29257240
      4.22000000	      1.88738920	     -1.36180676	      4.65422853	      1.05379573	      1.02445604	      0.02491190	      8.89279322	      3.85651199	     -3.85425442	    -17.56206440	      2.85132140	      0.37437843	     10.82977468	     -7.64364108	    -11.57707023	    -36.48163784	     12.62807290	      4.58861629	     -3.27245820	     -1.68002711	     -0.18802857
      4.23000000	      1.94568354	     -1.38640729	      4.59902992	      1.05910257	      1.02484423	      0.02511423	      8.42785722	      3.93603696	     -3.87274683	    -17.41169928	      2.98133040	      0.26856253	     10.61292474	     -7.52089958	    -11.45734606	    -34.34710119	     13.06091486	      4.68104961	     -3.29325492	     -1.62802119	     -0.11518103
      4.24000000	      2.00256324	     -1.43109568	      4.53695766	      1.06427351	      1.02515466	      0.02528923	      7.98430709	      4.03393287	     -3.89759229	    -17.27776750	      3.12735285	      0.18677235	     10.37271145	     -7.41197732	    -11.21943213	    -32.31617969	     13.45693115	      4.78346470	     -3.30235191	     -1.55446670	     -0.06533127
      4.25000000	      2.06115601	     -1.49138850	      4.46443949	      1.06931313	      1.02539375	      0.02544246	      7.55665273	      4.14695014	     -3.91448731	    -17.15925992	      3.29213759	      0.12128660	     10.11048093	     -7.32149409	    -10.87859819	    -30.41604576	     13.80978432	      4.88796570	     -3.30529159	     -1.46629074	     -0.03533694
      4.26000000	      2.12174402	     -1.56828320	      4.37892424	      1.07422704	      1.02556494	      0.02557182	      7.14373188	      4.27688728	     -3.90714596	    -17.05563041	      3.47444813	      0.06396372	      9.82897258	     -7.25716368	    -10.45513256	    -28.66486958	     14.09000290	      4.99226721	     -3.30127610	     -1.36025206	     -0.01253306
      4.27000000	      2.17744304	     -1.65256719	      4.28329092	      1.07902931	      1.02565592	      0.02564557	      6.75159807	      4.40912339	     -3.88924134	    -16.96849547	      3.67682987	      0.01301942	      9.53860405	     -7.21363924	     -9.98663990	    -27.07960025	     14.29858374	      5.08646958	     -3.28241607	     -1.24407909	      0.00592343
      4.28000000	      2.24072461	     -1.74101775	      4.17604429	      1.08373401	      1.02569028	      0.02569212	      6.36178904	      4.54385521	     -3.84924732	    -16.89112670	      3.89354314	     -0.03153458	      9.22453469	     -7.19030294	     -9.48668631	    -25.66167996	     14.40530307	      5.17787464	     -3.26289867	     -1.12948194	      0.01289345
      4.29000000	      2.30453840	     -1.83559005	      4.06043778	      1.08835166	      1.02565887	      0.02567074	      5.98047236	      4.67902851	     -3.78870843	    -16.82349174	      4.12096248	     -0.06698899	      8.89607752	     -7.18682915	     -8.98042760	    -24.41303662	     14.38022153	      5.26705268	     -3.23469950	     -1.00647443	      0.01985167
      4.30000000	      2.37036157	     -1.93189025	      3.94374458	      1.09288392	      1.02556305	      0.02557710	      5.60310219	      4.80927565	     -3.70869945	    -16.76144678	      4.36051418	     -0.09362783	      8.55359915	     -7.19641633	     -8.47640823	    -23.32913243	     14.20160787	      5.35143623	     -3.20077090	     -0.88197158	      0.01409294
      4.31000000	      2.44169905	     -2.03087774	      3.82337959	      1.09736001	      1.02541457	      0.02540411	      5.22086669	      4.93457764	     -3.62383026	    -16.69907664	      4.61050284	     -0.11188994	      8.18663715	     -7.21606951	     -7.98128131	    -22.39410627	     13.84667129	      5.42507397	     -3.16252571	     -0.75460222	      0.00365769
      4.32000000	      2.51315271	     -2.13417665	      3.70378335	      1.10175450	      1.02520267	      0.02513583	      4.84077069	      5.05573707	     -3.52476502	    -16.63604749	      4.87026488	     -0.12433507	      7.80643650	     -7.24383782	     -7.49564399	    -21.60138527	     13.30242966	      5.47629559	     -3.11948802	     -0.61895951	     -0.01584489
      4.33000000	      2.59319872	     -2.24454511	      3.58286545	      1.10606953	      1.02494091	      0.02478043	      4.45413006	      5.17648453	     -3.41712550	    -16.57297563	      5.14225931	     -0.12952063	      7.39920866	     -7.28146194	     -7.02514187	    -20.92879648	     12.58652934	      5.48423283	     -3.08394797	     -0.47259062	     -0.04154379
      4.34000000	      2.66917767	     -2.36451388	      3.46316267	      1.11032160	      1.02461862	      0.02433284	      4.07000436	      5.29855419	     -3.30681615	    -16.50176924	      5.41825773	     -0.12856293	      6.98005321	     -7.33171415	     -6.58986165	    -20.36291064	     11.72175881	      5.44258020	     -3.03960636	     -0.31198825	     -0.07825354
      4.35000000	      2.75470690	     -2.49693540	      3.34277321	      1.11449478	      1.02425243	      0.02381376	      3.67595754	      5.42725665	     -3.19447298	    -16.42386237	      5.70482753	     -0.11927062	      6.53611853	     -7.40102639	     -6.21127248	    -19.88606118	     10.80539872	      5.32845743	     -3.00682864	     -0.13486539	     -0.12067924
      4.36000000	      2.83927861	     -2.64205983	      3.22466554	      1.11860837	      1.02384472	      0.02323193	      3.27851717	      5.56290485	     -3.08418981	    -16.33242272	      5.98860006	     -0.10352670	      6.08154933	     -7.49304035	     -5.92626371	    -19.48265798	      9.93411190	      5.16040736	     -2.97366856	      0.05608938	     -0.17691608
      4.37000000	      2.93707117	     -2.80086067	      3.11055541	      1.12265792	      1.02342105	      0.02259305	      2.86329787	      5.70857870	     -2.97624466	    -16.22755008	      6.28159321	     -0.08111851	      5.60125490	     -7.61038941	     -5.75526129	    -19.13162485	      9.22134635	      4.93994153	     -2.95808498	      0.26248795	     -0.24339359
      4.38000000	      3.03283287	     -2.96550679	      3.00603917	      1.12666398	      1.02299290	      0.02190138	      2.43978785	      5.85561152	     -2.88045386	    -16.09748160	      6.55306452	     -0.05725118	      5.11065706	     -7.74403508	     -5.71840027	    -18.80997163	      8.71916068	      4.73525613	     -2.93961724	      0.47141242	     -0.32378809
